<svg width="228" height="210" viewBox="0 0 228 210" fill="none" xmlns="http://www.w3.org/2000/svg">
<g clip-path="url(#clip0_12825_22833)">
<path d="M159.14 0H68.8597C39.6242 0 15.9232 23.8241 15.9232 53.2301V116.145C15.9232 145.551 39.6242 169.375 68.8781 169.375L69.0803 210L104.751 169.375H159.14C188.394 169.375 212.095 145.551 212.095 116.145V53.2301C212.095 23.8241 188.394 0 159.14 0ZM188.026 107.144C188.026 128.14 188.026 145.163 150.057 145.163V169.357L124.573 145.163H64.7777C51.061 145.163 39.9552 133.999 39.9552 120.211V49.1639C39.9552 35.3758 51.061 24.2123 64.7777 24.2123H163.204C176.921 24.2123 188.026 35.3758 188.026 49.1639V107.162V107.144Z" fill="#37BCB3"/>
<path d="M163.333 94.9086V61.2887C163.333 58.3284 160.945 55.9287 158 55.9287H135.2C132.255 55.9287 129.868 58.3284 129.868 61.2887V94.9086C129.868 97.8689 132.255 100.269 135.2 100.269H158C160.945 100.269 163.333 97.8689 163.333 94.9086Z" fill="#008EC4"/>
<path d="M103.924 94.9086V61.2887C103.924 58.3285 101.537 55.9287 98.5916 55.9287H75.7916C72.8467 55.9287 70.4593 58.3285 70.4593 61.2887V94.9086C70.4593 97.8689 72.8467 100.269 75.7916 100.269H98.5916C101.537 100.269 103.924 97.8689 103.924 94.9086Z" fill="#008EC4"/>
<path d="M9.92903 58.313H5.99419C2.68369 58.313 0 61.0106 0 64.3383V98.9748C0 102.303 2.68369 105 5.99419 105H9.92903C13.2395 105 15.9232 102.303 15.9232 98.9748V64.3383C15.9232 61.0106 13.2395 58.313 9.92903 58.313Z" fill="#008EC4"/>
<path d="M222.006 58.313H218.071C214.76 58.313 212.077 61.0106 212.077 64.3383V98.9748C212.077 102.303 214.76 105 218.071 105H222.006C225.316 105 228 102.303 228 98.9748V64.3383C228 61.0106 225.316 58.313 222.006 58.313Z" fill="#008EC4"/>
</g>
<defs>
<clipPath id="clip0_12825_22833">
<rect width="228" height="210" fill="white"/>
</clipPath>
</defs>
</svg>
